<?xml version="1.0" standalone="no"?>
<!DOCTYPE svg PUBLIC "-//W3C//DTD SVG 20010904//EN"
 "http://www.w3.org/TR/2001/REC-SVG-20010904/DTD/svg10.dtd">
<svg version="1.0" xmlns="http://www.w3.org/2000/svg"
 width="512.000000pt" height="512.000000pt" viewBox="0 0 512.000000 512.000000"
 preserveAspectRatio="xMidYMid meet">
<metadata>
Created by potrace 1.14, written by Peter Selinger 2001-2017
</metadata>
<g transform="translate(0.000000,512.000000) scale(0.100000,-0.100000)"
fill="#000000" stroke="none">
<path d="M0 2560 l0 -2560 2560 0 2560 0 0 2560 0 2560 -2560 0 -2560 0 0
-2560z m2869 1820 l64 -13 -94 -32 c-52 -17 -104 -37 -116 -43 -12 -7 -50 -12
-85 -12 -154 0 -342 -50 -508 -136 -152 -78 -224 -131 -356 -263 -148 -147
-241 -277 -344 -481 -35 -68 -55 -99 -62 -92 -7 7 -6 22 2 47 20 61 8 131 -29
168 -30 30 -35 32 -109 32 -84 0 -145 -22 -239 -85 -25 -17 -47 -29 -49 -27
-6 5 96 165 152 239 63 83 211 236 299 308 260 213 603 360 945 403 70 9 466
-1 529 -13z m-289 -156 c0 -1 -12 -9 -26 -19 -22 -14 -28 -15 -35 -4 -7 11 -9
10 -9 -5 0 -10 -24 -44 -54 -75 -30 -31 -68 -74 -85 -96 -17 -22 -35 -45 -40
-51 -28 -34 -72 -141 -85 -210 -13 -64 -14 -94 -5 -154 11 -83 12 -98 3 -189
-5 -49 -3 -62 7 -59 7 2 17 20 22 39 15 58 24 54 41 -19 9 -39 16 -74 16 -78
0 -3 -20 -3 -44 0 -27 4 -47 3 -51 -4 -3 -5 -13 -10 -21 -10 -11 0 -14 6 -9
23 4 15 3 18 -3 8 -7 -9 -11 -10 -17 -2 -4 7 -1 18 5 26 20 24 0 102 -22 88
-5 -2 -8 1 -8 6 0 6 -7 11 -15 11 -8 0 -18 12 -21 28 -4 15 -12 30 -18 35 -8
5 -6 10 4 17 12 8 13 13 3 30 -16 24 -18 186 -3 195 6 3 10 31 10 61 0 39 4
54 12 52 7 -3 20 18 31 51 10 31 27 63 38 73 10 9 19 23 19 30 0 8 14 33 32
56 23 30 35 39 44 31 17 -14 29 8 15 25 -15 18 -1 29 17 13 13 -10 14 -8 8 11
-6 17 -4 21 8 16 8 -3 35 1 58 10 69 26 178 50 178 40z m814 -51 c7 -17 -19
-42 -44 -43 -8 -1 -28 -10 -45 -21 -16 -10 -39 -23 -50 -28 -11 -5 -48 -38
-83 -74 l-63 -64 17 -84 c9 -46 20 -89 25 -95 5 -6 29 -14 54 -16 59 -7 75
-22 75 -69 0 -31 6 -43 29 -60 24 -18 33 -36 46 -96 15 -69 19 -74 55 -93 50
-25 54 -33 40 -75 -12 -37 -8 -75 5 -40 33 93 54 133 86 168 32 33 42 38 66
33 36 -9 73 -50 73 -83 0 -14 -20 -62 -44 -107 -24 -45 -47 -92 -51 -106 -20
-67 -48 -130 -57 -130 -6 0 -8 10 -5 22 7 26 -8 48 -34 48 -46 0 -91 -142 -77
-247 9 -63 40 -143 56 -143 14 0 32 -83 42 -189 6 -58 12 -113 16 -123 3 -10
-1 -51 -10 -91 -14 -67 -29 -159 -31 -182 0 -5 -2 -12 -6 -15 -3 -3 -16 -23
-29 -45 -75 -124 -175 -180 -254 -144 -25 12 -28 20 -42 108 -9 64 -75 235
-132 346 l-49 96 111 73 c61 41 127 91 146 112 39 41 26 37 -35 -12 -50 -39
-275 -184 -334 -214 -38 -19 -54 -21 -104 -15 -78 8 -164 41 -182 68 -7 12
-17 34 -20 49 l-7 27 49 -5 c41 -4 56 -1 99 25 56 33 108 100 125 163 5 21 14
36 19 33 12 -7 12 -3 4 19 -8 20 -21 20 -42 0 -25 -25 -85 -12 -139 30 -54 42
-65 44 -90 13 -28 -37 -58 -48 -102 -41 -32 5 -42 3 -47 -10 -3 -9 -10 -16
-14 -16 -14 0 -88 115 -100 157 -11 37 -10 50 10 112 24 75 32 81 84 61 17 -6
26 -6 26 0 0 6 -8 10 -18 10 -23 0 -66 45 -57 59 12 20 45 12 54 -13 13 -32
39 -40 65 -19 12 10 22 18 24 19 3 2 -19 93 -45 182 -24 86 -23 55 2 -58 16
-71 21 -108 14 -115 -7 -7 -13 -4 -20 7 -5 10 -25 20 -44 24 -32 6 -34 9 -29
33 8 35 32 71 46 71 6 0 9 3 6 6 -3 3 -23 -2 -44 -11 -26 -11 -35 -18 -26 -24
7 -4 10 -15 6 -25 -5 -14 -12 -3 -25 40 -10 33 -21 78 -25 100 -5 38 -3 43 26
64 27 19 36 21 51 12 17 -11 19 -9 19 28 0 27 -4 40 -12 39 -7 -1 -21 1 -31 6
-14 6 -28 -2 -58 -31 l-39 -38 0 50 c0 89 25 151 86 208 56 54 152 116 244
157 52 23 66 24 268 26 213 3 257 9 246 38 -4 10 0 15 13 15 11 0 33 12 50 28
49 45 69 59 108 78 20 9 40 24 43 33 14 38 54 46 66 14z m668 -544 c231 -324
348 -713 335 -1114 -6 -175 -22 -285 -66 -445 -28 -99 -99 -285 -107 -277 -2
2 4 59 12 128 27 211 10 570 -37 809 -15 74 -92 343 -117 405 -41 104 -131
283 -184 370 l-55 90 5 140 5 140 71 -76 c39 -41 101 -118 138 -170z m-2111
-111 c0 -7 0 -36 -1 -64 l-1 -51 84 1 c47 1 89 -3 93 -7 11 -11 -13 -25 -58
-32 -21 -4 -38 -10 -38 -14 0 -4 -12 -8 -27 -9 -42 -3 -73 -29 -73 -60 0 -23
-17 -91 -72 -294 -12 -43 -3 -91 15 -85 22 7 36 51 51 169 16 124 32 173 56
173 18 0 17 -6 -17 -156 -35 -159 -18 -222 34 -120 17 34 20 53 16 96 -6 56
12 196 29 228 7 14 19 17 46 15 l37 -3 -3 -235 c-3 -255 -11 -321 -45 -371
-46 -69 -139 -121 -239 -134 l-46 -6 -4 -60 c-1 -34 0 -63 4 -65 4 -3 25 12
48 32 59 54 50 3 -13 -63 -35 -38 -31 -56 16 -79 29 -14 44 -15 93 -6 33 6 68
13 79 17 13 4 6 -6 -19 -29 -62 -57 -142 -61 -198 -9 -26 25 -26 25 -33 4 -8
-27 -21 -27 -28 0 -6 21 -7 21 -32 -9 -36 -43 -61 -49 -90 -22 -15 14 -25 18
-30 11 -3 -6 -14 -11 -24 -11 -10 0 -26 -9 -36 -20 -10 -11 -25 -18 -34 -16
-11 4 -24 -8 -41 -34 -26 -43 -43 -49 -71 -24 -16 15 -19 13 -38 -24 -27 -52
-81 -98 -160 -135 -120 -56 -215 -45 -267 32 -35 52 -30 55 21 16 59 -44 102
-52 163 -30 97 36 192 112 192 155 0 40 -88 48 -226 20 -74 -15 -108 -3 -137
48 -47 80 -14 153 137 300 91 89 141 117 191 108 79 -15 84 -86 16 -231 -37
-80 -68 -114 -56 -62 7 30 25 149 25 165 0 18 -23 15 -42 -5 -9 -10 -27 -26
-40 -35 -37 -25 -143 -167 -132 -177 5 -5 35 -5 69 1 78 13 157 4 201 -21 19
-12 37 -21 40 -21 2 0 4 25 4 55 0 59 -9 67 -51 45 -35 -19 -21 10 16 31 22
13 37 31 41 48 27 127 79 166 99 74 8 -38 4 -38 75 -13 56 20 160 27 160 11 0
-4 -27 -16 -60 -25 -33 -9 -84 -28 -115 -41 -48 -22 -55 -28 -55 -53 0 -16 -3
-51 -6 -78 l-6 -49 31 54 c40 70 56 87 92 100 26 9 29 8 29 -13 0 -12 -7 -44
-16 -70 -9 -26 -14 -50 -11 -53 12 -11 25 9 31 49 4 24 17 63 30 88 19 37 27
45 51 45 15 0 33 -8 39 -17 13 -22 1 -35 -18 -19 -12 10 -18 7 -31 -18 -21
-42 -31 -116 -16 -126 15 -9 38 10 58 49 13 25 23 76 36 190 2 14 -9 21 -46
31 -67 17 -101 45 -105 84 -6 60 60 104 192 127 82 15 177 6 191 -17 4 -5 3
-9 -2 -9 -4 0 -46 -5 -93 -11 -47 -6 -101 -12 -120 -15 -51 -6 -115 -32 -135
-54 -18 -20 -17 -21 5 -45 29 -31 77 -45 157 -45 86 0 163 31 224 89 47 45 49
50 49 102 0 47 -9 99 -26 149 -4 10 -12 6 -30 -18 -29 -36 -58 -41 -74 -12
-14 27 -24 25 -38 -5 -12 -27 -40 -33 -60 -13 -10 10 -18 6 -38 -20 -30 -38
-67 -43 -85 -9 -18 32 -16 107 5 161 14 37 15 50 6 61 -18 22 -26 19 -40 -15
-7 -17 -22 -37 -34 -45 -16 -12 -21 -27 -22 -75 -3 -71 -42 -151 -87 -178 -26
-16 -28 -16 -48 5 -27 26 -36 101 -20 160 6 22 26 63 44 90 34 52 70 67 91 38
19 -27 44 -7 63 51 l17 54 29 -30 c16 -16 35 -30 43 -30 24 0 23 -16 -1 -76
-46 -110 -25 -205 31 -143 16 17 19 37 19 113 1 50 5 129 9 175 l9 84 -29 -20
c-38 -26 -119 -46 -158 -37 -80 17 -124 118 -74 171 31 33 39 28 22 -12 -15
-36 -7 -69 20 -87 27 -18 88 -7 157 30 l72 38 23 82 c12 46 28 89 34 97 15 18
60 20 61 3z m-658 -48 c14 -11 28 -29 32 -39 8 -27 -24 -106 -94 -225 -34 -57
-61 -109 -61 -114 0 -5 11 -14 24 -21 82 -44 60 -188 -43 -284 -69 -65 -124
-91 -193 -91 -52 -1 -61 2 -89 31 -46 45 -51 110 -15 181 15 29 31 52 37 52 7
0 8 -7 4 -17 -20 -52 -27 -123 -15 -152 16 -41 66 -57 118 -40 85 28 182 128
182 190 0 38 -20 42 -145 34 -102 -7 -104 -7 -129 18 -13 13 -31 47 -40 75
-18 62 -11 95 46 205 51 98 138 175 238 210 39 14 118 6 143 -13z m2516 -72
c-3 -26 1 -38 14 -38 8 0 19 -18 26 -41 7 -23 15 -39 18 -36 9 9 39 -26 52
-60 8 -18 17 -33 21 -33 4 0 11 -11 14 -25 4 -14 11 -25 16 -25 6 0 10 -11 10
-25 0 -14 4 -25 9 -25 5 0 11 -9 14 -20 3 -11 12 -20 20 -20 9 0 13 -9 12 -25
-2 -14 1 -23 6 -19 5 3 9 -4 9 -16 0 -13 4 -18 11 -14 6 4 9 -1 8 -12 -2 -11
0 -24 3 -30 4 -6 9 -21 12 -35 6 -35 17 -59 26 -59 4 0 7 -6 7 -12 -2 -29 16
-127 23 -123 4 2 10 -28 14 -68 8 -97 15 -137 27 -168 13 -34 26 -340 18 -449
-3 -47 -12 -138 -19 -203 l-13 -118 -19 68 c-33 125 -47 236 -57 460 -10 205
-12 227 -38 295 -33 85 -88 147 -153 168 -38 12 -41 16 -35 39 4 14 9 51 12
82 4 50 2 59 -23 88 -25 30 -31 33 -71 28 -40 -4 -46 -2 -68 28 -30 38 -30 43
-8 67 28 31 50 22 83 -34 32 -58 36 -59 19 -7 -15 44 -69 101 -139 147 -30 20
-57 37 -59 38 -2 2 117 173 156 224 2 2 8 -1 12 -9 6 -9 10 -7 14 8 6 23 19
29 16 9z m-2457 -169 c5 -19 5 -77 2 -129 l-7 -95 28 33 c18 22 35 32 49 30
20 -3 21 -8 21 -140 -1 -75 -4 -140 -8 -144 -17 -17 -22 14 -21 122 0 63 -3
114 -7 114 -14 0 -59 -108 -84 -201 -13 -50 -27 -94 -30 -98 -15 -15 -23 34
-30 193 -7 182 -2 252 23 301 32 66 52 70 64 14z m914 -10 c3 -5 16 -9 29 -9
13 0 26 -4 29 -9 8 -12 -14 -71 -26 -71 -5 0 -7 -4 -4 -9 4 -5 3 -16 0 -25
-12 -30 -41 0 -49 50 -4 26 -13 57 -21 69 -14 21 -13 22 11 17 14 -2 28 -8 31
-13z m1241 -120 c3 -55 25 -133 52 -187 12 -23 21 -50 21 -61 0 -10 16 -35 35
-54 25 -25 35 -45 36 -68 1 -24 3 -27 6 -11 8 43 75 22 98 -31 8 -18 14 -24
15 -15 0 9 -6 29 -12 44 -10 22 -10 28 0 32 7 2 10 8 7 12 -3 5 5 18 17 29 12
12 17 21 12 21 -5 0 -15 21 -22 47 -14 49 -7 63 30 63 18 0 53 -50 63 -92 9
-34 -2 -81 -15 -73 -6 4 -10 -9 -10 -29 0 -20 -4 -36 -8 -36 -5 0 -16 -16 -25
-35 -28 -59 -112 -88 -172 -60 -19 10 -35 23 -35 30 0 8 -12 15 -27 17 -22 2
-33 13 -50 48 -12 25 -23 54 -25 65 -2 11 -11 26 -20 33 -54 40 -63 262 -13
338 23 35 40 25 42 -27z m138 30 c12 -19 -27 -51 -55 -44 l-25 6 25 -20 c17
-14 26 -16 29 -8 2 7 10 20 18 29 17 19 53 11 86 -19 16 -15 15 -17 -14 -35
-23 -14 -35 -16 -42 -9 -6 6 -14 11 -19 11 -8 0 67 -116 81 -124 5 -4 17 -29
26 -57 16 -46 16 -52 1 -68 -9 -10 -16 -23 -16 -29 0 -8 -11 -9 -32 -5 -31 5
-106 74 -108 98 0 6 -12 35 -26 65 -14 30 -32 77 -39 103 -11 43 -10 49 5 60
9 7 20 22 24 35 6 17 15 22 41 22 19 0 37 -5 40 -11z m-1376 -103 c-9 -8 -10
-7 -5 7 3 10 7 24 7 30 1 7 3 4 6 -7 3 -10 -1 -23 -8 -30z m-1451 -16 l23 -49
-26 -40 c-54 -81 -52 -175 3 -234 39 -42 59 -50 135 -56 l69 -6 -65 -82 c-90
-113 -110 -159 -105 -232 3 -37 11 -68 25 -87 l22 -30 -35 -27 c-30 -24 -34
-34 -34 -73 0 -64 32 -108 104 -144 67 -34 128 -39 214 -16 29 7 52 11 52 9 0
-8 69 -350 74 -363 3 -9 -15 -31 -47 -56 -29 -22 -62 -57 -74 -78 l-21 -39
-61 82 c-261 353 -390 833 -341 1276 12 104 50 295 59 295 3 -1 16 -23 29 -50z
m1572 -193 c50 -60 90 -117 90 -127 0 -10 6 -25 13 -32 8 -7 19 -24 26 -36 11
-20 9 -25 -11 -42 -30 -25 -44 -25 -53 3 -5 16 -8 18 -12 7 -3 -8 -16 -22 -27
-32 l-21 -17 25 5 c22 5 21 3 -8 -17 -25 -16 -36 -19 -45 -10 -19 19 -30 12
-23 -14 5 -18 2 -25 -9 -25 -8 0 -15 -4 -15 -8 0 -8 -10 -22 -50 -69 -6 -8 -5
-13 3 -16 20 -7 1 -18 -32 -19 -25 -1 -30 -5 -26 -19 4 -10 -4 -27 -18 -43
-28 -31 -37 -32 -37 -8 0 14 -4 12 -19 -8 -18 -22 -18 -25 -3 -36 16 -11 15
-14 -1 -31 -9 -11 -17 -24 -17 -29 0 -5 -8 -21 -17 -34 -18 -25 -27 -143 -10
-133 8 5 -2 -47 -10 -57 -3 -3 -12 4 -20 15 -15 19 -15 19 -10 -11 5 -26 2
-31 -23 -41 -18 -7 -32 -21 -36 -37 -7 -31 2 -60 16 -51 26 16 5 -15 -35 -54
-38 -37 -44 -39 -36 -18 6 16 6 27 1 29 -6 2 -6 24 -1 55 4 29 5 54 0 55 -4 2
-9 44 -11 94 -3 90 -3 91 30 128 17 20 32 45 32 56 0 10 9 21 20 25 24 8 70
61 70 83 0 8 9 35 21 59 19 38 19 45 6 71 -12 24 -12 32 0 47 16 23 17 50 1
78 -15 27 -19 47 -9 47 3 0 15 15 25 34 10 19 25 37 32 40 8 3 11 12 8 21 -3
8 -2 15 3 15 5 0 17 15 28 33 10 17 17 32 16 32 -7 0 39 84 48 89 5 4 8 20 6
36 -2 16 1 32 6 36 6 3 8 20 5 37 -5 28 -4 27 9 -8 9 -22 56 -89 105 -148z
m1508 -157 c71 -38 107 -82 139 -170 16 -44 22 -92 27 -235 3 -99 9 -209 12
-245 5 -62 5 -64 -11 -45 -20 23 -20 23 23 -69 38 -80 56 -185 40 -222 -8 -16
-35 -33 -87 -55 -81 -34 -133 -39 -263 -25 -76 8 -84 18 -74 89 7 43 -10 437
-20 495 -7 35 -24 44 -24 12 0 -13 -5 -18 -15 -14 -20 8 -19 -2 4 -40 16 -26
20 -65 29 -241 5 -115 10 -226 9 -245 0 -24 10 -50 32 -83 l33 -47 -4 -165 -3
-164 -63 -64 c-75 -76 -220 -166 -382 -238 -154 -69 -160 -69 -256 -21 -106
53 -205 88 -304 106 -45 9 -83 16 -85 16 -3 0 7 52 31 168 10 49 20 72 30 72
22 0 17 14 -17 46 -68 64 -105 190 -80 267 20 58 55 79 203 117 34 9 60 26 97
64 81 81 178 231 168 259 -2 7 -10 0 -17 -15 -7 -16 -17 -28 -21 -28 -4 0 -17
-20 -28 -45 -22 -51 -41 -59 -41 -17 0 15 -7 79 -17 142 -9 64 -13 128 -9 144
11 44 63 88 100 84 28 -3 32 -8 58 -83 23 -68 26 -91 21 -150 -5 -62 -3 -73
17 -97 43 -55 144 -31 237 55 57 52 94 115 87 147 -3 16 -1 19 3 10 20 -37 30
-16 37 73 6 88 39 247 69 331 l14 40 74 0 c85 1 115 15 152 71 12 19 26 35 30
35 4 0 24 -9 45 -20z m-313 -63 c3 -7 -6 -34 -19 -61 l-23 -48 -6 33 c-3 19
-9 53 -12 77 l-7 44 32 -17 c17 -9 33 -21 35 -28z m-1535 -65 l23 -18 -32 -36
c-17 -20 -31 -38 -31 -41 0 -3 12 -8 26 -11 17 -5 24 -12 22 -24 -5 -27 -67
-52 -128 -51 l-55 1 53 12 c67 17 76 26 24 26 -44 0 -72 19 -72 50 0 41 21 71
62 90 54 24 80 25 108 2z m295 -102 c-3 -5 -11 -10 -16 -10 -6 0 -7 5 -4 10 3
6 11 10 16 10 6 0 7 -4 4 -10z m-437 -196 c30 -9 28 -39 -5 -62 -16 -10 -74
-34 -130 -52 -94 -31 -101 -35 -88 -50 13 -15 13 -19 1 -29 -7 -6 -19 -31 -26
-56 -16 -57 -34 -47 -28 16 6 56 -6 65 -72 54 -36 -6 -40 -5 -40 14 0 26 13
32 160 72 144 39 167 52 80 45 -88 -8 -255 -49 -323 -81 -67 -30 -76 -31 -52
-6 20 23 117 71 191 95 114 37 271 56 332 40z m222 -146 c0 -13 -5 -30 -10
-38 -7 -11 -10 -5 -10 23 0 20 5 37 10 37 6 0 10 -10 10 -22z m1320 -22 c0 -3
-4 -8 -10 -11 -5 -3 -10 -1 -10 4 0 6 5 11 10 11 6 0 10 -2 10 -4z m-65 -76
c-10 -11 -20 -18 -23 -16 -5 6 21 35 32 36 5 0 1 -9 -9 -20z m-214 -35 c5 4 9
-1 9 -9 0 -9 -4 -16 -9 -16 -10 0 -22 25 -20 43 1 7 3 4 6 -6 2 -9 9 -15 14
-12z m174 5 c-3 -5 -11 -10 -16 -10 -6 0 -7 5 -4 10 3 6 11 10 16 10 6 0 7 -4
4 -10z m-35 -18 c0 -5 -11 -14 -25 -20 -21 -10 -25 -9 -25 4 0 10 6 14 15 10
8 -3 15 -1 15 4 0 6 5 10 10 10 6 0 10 -4 10 -8z m-100 -17 c0 -8 -4 -15 -10
-15 -5 0 -10 7 -10 15 0 8 5 15 10 15 6 0 10 -7 10 -15z m33 -18 c-3 -5 -10
-4 -15 1 -6 6 -7 16 -3 22 6 9 9 9 16 -1 4 -7 5 -17 2 -22z m-1255 -146 c-9
-15 -9 -25 0 -46 12 -26 11 -26 -19 -23 -23 2 -34 10 -41 27 -7 19 -5 22 7 17
9 -3 24 4 37 19 26 30 33 32 16 6z m-348 -61 c0 -5 -4 -10 -9 -10 -6 0 -13 5
-16 10 -3 6 1 10 9 10 9 0 16 -4 16 -10z m103 -16 c11 -11 -3 -24 -18 -18 -8
4 -12 10 -9 15 6 11 18 12 27 3z m357 -39 c16 -19 0 -19 -26 0 -16 12 -16 14
-3 15 9 0 22 -7 29 -15z m-576 -5 c37 -14 32 -30 -8 -30 -28 0 -36 -5 -44 -27
-6 -16 -11 -22 -11 -15 -1 16 -26 15 -40 -1 -6 -8 -28 -19 -49 -25 -54 -16
-88 -47 -73 -66 13 -16 -4 -26 -44 -26 -35 0 -40 -18 -13 -48 25 -28 35 -76
18 -87 -17 -10 -11 -25 14 -36 22 -10 44 -49 27 -49 -6 0 -60 54 -124 126
l-29 32 20 38 c23 44 50 71 107 106 47 29 135 67 164 71 12 2 28 13 37 25 18
25 15 25 48 12z m93 2 c19 -12 0 -32 -25 -25 -18 4 -20 8 -11 19 13 16 19 17
36 6z m424 -8 c35 -18 35 -19 -6 -28 -22 -5 -26 -4 -15 4 13 8 11 11 -7 16
-13 4 -20 10 -17 15 7 12 10 12 45 -7z m-377 0 c20 -8 11 -24 -14 -24 -13 0
-17 5 -14 15 7 17 7 17 28 9z m306 -4 c0 -5 -5 -10 -11 -10 -5 0 -7 5 -4 10 3
6 8 10 11 10 2 0 4 -4 4 -10z m-90 -21 c0 -5 -11 -9 -25 -9 -14 0 -25 6 -25
14 0 9 8 12 25 8 14 -2 25 -8 25 -13z m375 2 c9 -15 -15 -24 -30 -11 -8 7 -22
10 -30 6 -8 -3 -15 -1 -15 4 0 13 67 13 75 1z m150 -42 c23 -24 21 -24 -72 6
-66 20 -78 31 -40 37 29 5 86 -17 112 -43z m1674 10 c-21 -13 -29 -11 -29 9 0
14 2 15 10 2 7 -12 10 -11 16 5 5 13 9 15 12 6 2 -7 -2 -17 -9 -22z m-42 -11
c-3 -8 -6 -5 -6 6 -1 11 2 17 5 13 3 -3 4 -12 1 -19z m-17 2 c0 -5 -8 -10 -17
-10 -15 0 -16 2 -3 10 19 12 20 12 20 0z m-2425 -10 c3 -5 2 -10 -4 -10 -5 0
-13 5 -16 10 -3 6 -2 10 4 10 5 0 13 -4 16 -10z m2172 -12 c-3 -8 -6 -5 -6 6
-1 11 2 17 5 13 3 -3 4 -12 1 -19z m50 -10 c-3 -7 -5 -2 -5 12 0 14 2 19 5 13
2 -7 2 -19 0 -25z m158 23 c3 -5 1 -12 -5 -16 -5 -3 -10 1 -10 9 0 18 6 21 15
7z m-178 -23 c-3 -8 -6 -5 -6 6 -1 11 2 17 5 13 3 -3 4 -12 1 -19z m103 11 c0
-4 -9 -9 -20 -12 -12 -3 -20 0 -20 7 0 6 9 12 20 12 11 0 20 -3 20 -7z m50 1
c0 -5 -4 -10 -10 -10 -5 0 -10 5 -10 10 0 6 5 10 10 10 6 0 10 -4 10 -10z
m140 3 c0 -19 -150 -199 -236 -283 l-96 -95 6 40 c3 22 6 99 6 172 l0 132 48
-5 c46 -6 182 15 232 35 31 12 40 13 40 4z m-2304 -31 c-22 -5 -30 3 -21 18 5
8 11 7 22 -2 15 -12 14 -13 -1 -16z m750 -14 c39 -27 49 -41 59 -78 6 -25 19
-61 29 -81 17 -36 17 -37 -6 -77 -13 -22 -41 -55 -62 -72 -58 -45 -165 -94
-208 -94 -20 0 -35 -3 -33 -6 2 -4 -9 -4 -26 -2 -23 3 -29 9 -29 28 0 13 0 27
0 32 -1 4 8 8 19 10 44 7 43 28 -4 71 l-46 42 36 -7 c28 -5 35 -3 35 9 0 9 -9
19 -21 22 -11 4 -41 16 -66 27 -36 16 -42 22 -33 33 22 27 5 37 -23 15 -29
-23 -38 -12 -12 14 19 19 132 12 184 -12 63 -29 102 -126 76 -188 -8 -20 -15
-38 -15 -40 0 -12 24 1 72 40 29 25 66 50 82 55 36 14 29 31 -22 56 -23 11
-42 22 -42 25 0 3 13 11 30 18 42 19 48 48 16 81 -14 15 -26 36 -26 47 0 11
-7 30 -16 42 -21 31 -4 27 52 -10z m-831 -8 c14 -13 25 -27 25 -32 0 -13 -22
-9 -41 8 -20 18 -48 21 -99 10 -26 -5 -31 -4 -20 3 13 9 13 11 -2 11 -21 0
-24 16 -5 24 6 2 36 3 65 2 39 -2 59 -9 77 -26z m294 13 c18 -12 28 -14 41 -5
17 10 30 7 30 -9 0 -12 -45 -19 -75 -10 -17 4 -31 15 -33 24 -4 21 7 22 37 0z
m199 -13 c11 0 24 -5 28 -11 4 -8 -4 -9 -27 -4 -46 10 -71 24 -63 36 4 6 12 4
23 -5 10 -9 27 -16 39 -16z m75 23 c-7 -2 -19 -2 -25 0 -7 3 -2 5 12 5 14 0
19 -2 13 -5z m-353 -13 c0 -5 -7 -10 -15 -10 -8 0 -15 5 -15 10 0 6 7 10 15
10 8 0 15 -4 15 -10z m-45 -20 c3 -5 1 -10 -4 -10 -6 0 -11 5 -11 10 0 6 2 10
4 10 3 0 8 -4 11 -10z m-372 -25 c4 -8 2 -17 -4 -20 -5 -4 -7 -11 -4 -16 10
-14 -5 -11 -22 6 -12 12 -13 19 -3 30 16 19 26 19 33 0z m167 8 c0 -5 -13 -15
-29 -24 -20 -12 -33 -14 -46 -6 -17 9 -16 11 6 23 26 14 69 19 69 7z m760 -18
c55 -28 55 -28 39 -57 -10 -19 -13 -18 -55 28 -60 65 -59 67 16 29z m-82 -21
c29 -28 23 -30 -35 -8 -24 9 -43 23 -43 31 0 22 48 8 78 -23z m-129 9 c40 -23
40 -37 -1 -29 -36 7 -60 24 -52 37 8 13 19 11 53 -8z m-519 -13 c-11 -21 -26
-25 -55 -13 -15 5 -14 8 6 19 13 7 32 13 42 14 15 0 16 -3 7 -20z m102 10 c6
0 6 -6 -2 -15 -6 -8 -9 -19 -5 -25 3 -5 0 -10 -8 -10 -8 0 -20 -7 -27 -15 -10
-12 -9 -15 7 -15 23 0 103 -55 103 -70 0 -17 -20 -11 -54 15 -18 14 -40 25
-49 25 -9 0 -23 13 -32 29 -14 28 -14 30 5 36 26 8 26 29 0 22 -11 -3 -20 -1
-20 4 0 13 41 29 58 23 8 -2 18 -4 24 -4z m-391 -23 c-10 -9 -11 -8 -5 6 3 10
9 15 12 12 3 -3 0 -11 -7 -18z m505 1 c19 -21 19 -21 -1 -14 -11 4 -32 10 -48
13 -41 8 -43 23 -4 23 22 0 40 -7 53 -22z m106 -66 c-21 -37 -23 -46 -11 -54
10 -6 7 -7 -11 -3 -41 12 -42 19 -10 63 l30 42 -24 0 c-14 0 -27 4 -30 9 -11
17 19 18 50 2 l32 -16 -26 -43z m88 38 c8 -5 12 -11 9 -14 -3 -3 -14 1 -25 9
-21 16 -8 20 16 5z m-614 -79 c3 -20 17 -53 31 -74 20 -32 21 -37 6 -29 -42
23 -83 93 -83 143 0 31 0 32 20 14 11 -10 22 -34 26 -54z m147 59 c13 0 17 -4
12 -9 -12 -12 -65 -2 -65 11 0 6 7 7 16 4 9 -3 25 -6 37 -6z m-25 -48 c2 -14
-2 -22 -11 -22 -19 0 -40 26 -32 40 11 18 40 6 43 -18z m321 14 c10 -12 8 -13
-8 -9 -12 3 -21 9 -21 14 0 14 16 11 29 -5z m-589 -35 c0 -3 14 -15 31 -26 31
-20 55 -53 45 -62 -2 -3 -21 0 -41 7 -39 13 -65 55 -65 102 1 22 1 22 15 4 8
-11 15 -22 15 -25z m442 1 c14 -14 4 -15 -55 -5 -23 3 -34 9 -26 13 17 11 67
6 81 -8z m-213 -23 c17 -6 36 -20 42 -30 5 -10 15 -19 22 -19 8 0 21 -16 30
-35 17 -35 16 -35 -6 -35 -28 0 -64 32 -83 74 l-15 31 6 -32 c8 -42 2 -41 -31
3 -23 29 -25 37 -13 45 8 5 14 9 15 9 1 0 15 -5 33 -11z m141 -21 c1 -13 7
-41 15 -63 8 -21 12 -41 10 -43 -9 -9 -46 21 -60 49 -14 27 -14 31 0 45 8 8
15 20 15 25 0 20 20 7 20 -13z m-238 -18 c29 -26 31 -29 12 -30 -21 0 -64 33
-64 50 0 18 19 10 52 -20z m329 -2 c33 -19 39 -27 39 -56 0 -34 0 -34 38 -27
20 4 38 8 40 9 1 2 -1 17 -4 35 -5 22 -14 33 -30 37 -13 3 -24 11 -24 16 0 14
67 3 87 -14 8 -6 25 -14 36 -15 28 -5 39 -17 53 -56 7 -18 16 -31 21 -30 6 1
22 -11 38 -27 25 -26 26 -28 7 -34 -35 -11 -93 16 -114 54 -19 33 -19 26 -1
-32 5 -18 3 -20 -13 -13 -10 4 -36 10 -57 13 -21 2 -41 10 -44 18 -3 8 -9 14
-15 14 -5 0 -6 -5 -2 -11 7 -12 -25 -5 -64 14 -26 12 -56 59 -66 100 -5 23 -3
27 15 27 12 0 39 -10 60 -22z m-351 -91 c41 -14 66 -28 68 -39 3 -15 -1 -15
-48 -3 -45 12 -120 56 -120 71 0 6 3 5 100 -29z m74 13 c35 -13 34 -34 0 -26
-15 4 -41 13 -58 21 l-31 13 32 1 c17 1 43 -3 57 -9z m655 -26 c26 -44 26 -44
-6 -44 -27 0 -63 25 -63 43 0 10 30 36 42 37 3 0 15 -16 27 -36z m-539 -54 c0
-5 -9 -10 -21 -10 -11 0 -17 5 -14 10 3 6 13 10 21 10 8 0 14 -4 14 -10z m640
6 c0 -7 -139 -28 -152 -23 -7 2 7 9 32 15 46 10 120 15 120 8z m293 -12 c37
-4 67 -11 67 -17 0 -5 -5 -27 -12 -49 -9 -31 -9 -44 1 -60 15 -24 5 -58 -17
-58 -9 0 -39 7 -66 15 -26 8 -120 29 -208 45 -126 25 -194 32 -321 35 -94 2
-185 9 -217 18 -54 13 -51 14 110 14 171 0 283 14 410 52 65 20 86 20 253 5z
m-533 -14 l45 -2 -42 -10 c-47 -12 -333 -1 -333 12 0 14 27 15 159 8 69 -3
146 -7 171 -8z m750 -115 c79 -19 152 -47 245 -93 l70 -35 -45 -13 c-115 -35
-451 -86 -466 -71 -3 3 18 57 47 121 40 90 55 115 68 112 9 -3 45 -12 81 -21z
m-717 -4 c-5 -21 12 -37 22 -21 12 20 25 10 25 -20 0 -20 5 -30 15 -30 9 0 15
-9 15 -24 0 -17 7 -26 26 -30 14 -4 35 -16 47 -26 11 -11 29 -20 38 -20 10 0
21 -5 24 -10 4 -7 -2 -9 -17 -6 -12 3 -59 12 -103 21 -150 32 -259 72 -283
104 -13 18 -19 37 -15 46 3 10 0 21 -8 26 -9 5 31 9 103 9 109 0 116 -1 111
-19z"/>
<path d="M2468 4183 c7 -3 16 -2 19 1 4 3 -2 6 -13 5 -11 0 -14 -3 -6 -6z"/>
<path d="M2815 3709 c-53 -18 -247 -144 -268 -173 -4 -6 -6 -20 -5 -31 2 -15
12 -20 38 -22 31 -2 45 6 118 72 109 99 148 118 224 113 68 -5 102 -31 150
-116 17 -29 33 -51 35 -48 9 9 -19 81 -49 127 -62 92 -136 116 -243 78z"/>
<path d="M2720 3481 c0 -6 5 -11 11 -11 5 0 8 -3 6 -7 -3 -5 27 -6 66 -3 l72
4 -65 6 c-36 3 -71 9 -77 13 -8 5 -13 4 -13 -2z"/>
<path d="M2937 3468 c24 -26 63 -89 63 -101 0 -5 -5 -7 -12 -5 -7 3 -37 -1
-68 -9 -30 -7 -75 -13 -99 -13 -43 0 -43 0 -37 -32 7 -38 22 -57 54 -69 30
-12 85 11 107 45 10 14 23 26 31 26 27 0 23 -21 -12 -60 -24 -27 -30 -38 -18
-34 23 9 59 44 59 59 0 5 23 11 50 13 56 4 78 16 46 27 -12 3 -19 11 -16 16 4
5 -8 6 -27 3 -31 -6 -32 -6 -13 9 20 16 19 16 -5 11 -20 -5 -22 -3 -10 5 13 9
13 11 -3 11 -10 0 -22 12 -28 27 -14 37 -57 93 -71 93 -6 0 -2 -10 9 -22z
m-11 -148 c9 0 12 -4 9 -10 -10 -17 -55 -12 -55 6 0 11 5 14 16 10 9 -3 22 -6
30 -6z m-90 -51 c19 -22 19 -22 -3 -10 -24 12 -39 31 -25 31 5 0 17 -10 28
-21z"/>
<path d="M3551 3468 c-23 -23 -46 -87 -60 -161 -8 -45 -7 -48 10 -44 23 6 24
-2 2 -33 -12 -17 -13 -25 -5 -28 7 -2 12 -10 12 -17 0 -15 27 -28 41 -19 5 3
9 19 9 36 0 16 8 42 19 56 30 43 61 110 61 130 0 11 -7 25 -15 32 -13 11 -14
8 -9 -18 5 -23 -2 -47 -27 -96 -18 -35 -37 -63 -41 -60 -4 3 -8 -14 -9 -38 -1
-40 -1 -41 -9 -14 -6 18 -5 36 1 48 13 24 5 48 -17 48 -10 0 -14 5 -11 14 3 8
11 34 17 58 25 91 60 129 101 108 11 -6 24 -21 29 -33 7 -18 9 -19 9 -4 2 57
-67 79 -108 35z"/>
<path d="M2681 3373 c-5 -10 -14 -35 -19 -56 -9 -34 -8 -42 8 -60 19 -20 19
-20 8 11 -10 26 -9 40 4 77 17 45 17 60 -1 28z"/>
<path d="M2690 3220 c8 -5 20 -10 25 -10 6 0 3 5 -5 10 -8 5 -19 10 -25 10 -5
0 -3 -5 5 -10z"/>
<path d="M2818 3193 c12 -2 30 -2 40 0 9 3 -1 5 -23 4 -22 0 -30 -2 -17 -4z"/>
<path d="M2479 3154 c-8 -9 -31 -27 -51 -40 -30 -19 -38 -31 -38 -53 0 -16 7
-34 15 -41 8 -7 15 -18 15 -26 0 -12 29 -34 45 -34 4 0 -7 19 -24 42 -17 23
-31 49 -31 57 0 9 21 35 47 58 27 22 45 44 42 47 -3 4 -12 -1 -20 -10z"/>
<path d="M2549 3114 c-11 -13 -9 -14 14 -9 17 5 33 2 42 -5 18 -15 20 -61 3
-78 -17 -17 -2 -28 17 -12 19 16 19 69 -1 98 -18 26 -56 29 -75 6z"/>
<path d="M2558 3063 c7 -3 16 -2 19 1 4 3 -2 6 -13 5 -11 0 -14 -3 -6 -6z"/>
<path d="M2500 3034 c0 -6 42 -43 50 -44 3 0 11 4 19 9 12 8 12 12 2 25 -13
15 -71 23 -71 10z"/>
<path d="M1550 2980 c-25 -48 -41 -170 -22 -170 6 0 22 14 36 30 32 39 42 105
23 151 l-14 34 -23 -45z"/>
<path d="M1527 2355 c-10 -22 -16 -49 -14 -60 3 -16 7 -12 21 19 9 21 16 48
14 60 -3 17 -7 14 -21 -19z"/>
<path d="M1139 3312 c-69 -44 -149 -147 -149 -192 0 -20 4 -21 82 -18 l82 3
22 80 c23 82 30 155 16 155 -4 0 -28 -13 -53 -28z"/>
<path d="M3657 1296 c-9 -13 -41 -51 -72 -84 -63 -69 -119 -96 -199 -97 -90 0
-142 22 -218 93 -71 67 -90 75 -65 25 24 -44 87 -100 142 -125 69 -31 191 -31
251 0 58 29 199 191 182 208 -3 2 -12 -6 -21 -20z"/>
<path d="M1982 2480 c-38 -23 -41 -40 -9 -40 15 0 29 9 37 25 18 34 10 38 -28
15z"/>
</g>
</svg>
